<?xml version="1.0" encoding="utf-8"?>
<!-- Generator: Adobe Illustrator 25.3.1, SVG Export Plug-In . SVG Version: 6.00 Build 0)  -->
<svg version="1.1" id="Calque_1" xmlns="http://www.w3.org/2000/svg" xmlns:xlink="http://www.w3.org/1999/xlink" x="0px" y="0px"
	 viewBox="0 0 416.7 190.9" style="enable-background:new 0 0 416.7 190.9;" xml:space="preserve">
<style type="text/css">
	.st0{fill:#54C1DC;}
	.st1{enable-background:new    ;}
	.st2{fill:#222651;}
</style>
<g>
	<path class="st0" d="M34.8,146.6c-5.7-1.8-10.7-3.8-12.2-10.5c-0.3-1.5-3.6-3.4-5.4-3.2c-4.3,0.4-7.3-1.3-10.3-3.9
		c-1.4-1.2-3.4-1.9-5.6-3.1c1.1-1.2,2-2.3,3-3.2c6.4-6,7.5-11.1,4.7-19.3c-1-2.9-1.4-6.1-1.6-9.2c0-0.6,2-2,3-1.9
		c1.3,0.1,2.5,1.4,4.3,2.6c2.2-5.8,4.5-11.5,7.1-18.2c0,0-1.2-0.8-2.1-1.7c-1.3-1.4-3-2.8-3.5-4.5c-0.4-1.1,0.7-3.8,1.6-4
		c2-0.5,4.3-0.1,6.3,0.4c2.6,0.7,5.1,1.9,7.7,2.9c1.3-8,0.1-10.6-6.8-14.5c1.5-2.4,3-4.8,4.6-7.4c-0.9-0.8-2.1-1.9-3.4-3
		c0.7-2,1.3-4,2-6c-8.6-2.4-8.7-2.7-7.2-11.8c0.1-0.3,0.2-0.7,0.2-1c-1.1-5.5,0.6-9,6.4-11C30.9,14,33.5,11,36.5,9
		c2.3-1.5,4.2-2.3,6,1.1c1,1.8,3.6,2.7,5.5,3.9c1.8,1.1,3.8,2.1,5.7,3.1c3.6-6.8,3.6-6.8,10.6-6.1c0-3,0-6,0-9.2
		C66.9,3,68.9,4,71.2,5.1c0.4-1.7,0.3-2.9,0.9-3.5c1-0.9,2.4-1.8,3.6-1.8c0.8,0,2.2,1.6,2.2,2.6C78.2,6.1,78,9.8,78,14.3
		c2.9,2.8,6,1.1,8.6-1.9c4.2-4.8,8.3-5.3,12.7-1.2c0.5,0.4,1.1,1.3,1.5,1.2c8.7-1.6,9.4,5.4,11.8,10.7c1.9,4.1,9.3,7.6,11.6,6.4
		c2.4,1.5,4.3,2.8,7,4.5c0.8-9,8.3-7.4,12.8-8.9c5.9-1.9,12.9-2.1,19.1-0.9c3.1,0.6,5.5,5.5,7.9,8.7c2,2.6,2.4,7.1,7.4,4.5
		c0.1,2.5,0.3,4.7,0.4,7.5c-0.7,0.9-1.9,2.4-3.1,4c0.5,0,0.9-0.1,1.4-0.1c1.6,4,3.3,8,4.7,12.1c0.6,1.9,0.5,4,0.8,5.9
		c1.3,6.6-0.1,11.8-5.9,16.4c-5.8,4.6-8,11.5-8.2,19.1c-0.1,2.5-1.7,5.5-3.6,7.3c-5.1,4.7-6.2,10.7-5.2,16.8c1.3,8.1,3.7,16,6,23.9
		c0.5,1.7,2.9,2.9,4.3,4.5c1.3,1.6,3.5,3.4,3.5,5.1c0,3.4-1.3,6.7-1.9,9.2c-4.4,0.7-8.5,1.9-12.5,1.8c-4.6-0.1-9.2-1.2-13.7-2.3
		c-7-1.8-13.8-2.5-21-0.9c-5,1.1-10.2,1.5-15.4,1.5c-15.7-0.2-30.5,3.2-44.9,9.4c-9.5,4.1-19.3,7.7-28.9,11.7
		c-2.5,1-4.4,1.1-4.5-2.1c-0.2-4.8-0.7-9.7,0.1-14.4c0.8-4.4,4-8.4,4.7-12.7C36.1,156.4,35.1,151.4,34.8,146.6z"/>
</g>
<g class="st1">
	<path class="st2" d="M103.5,55h-8.9c-1.6-1.8-3.3-3.2-5.1-4.1c-1.8-1-3.8-1.5-6-1.5c-2.3,0-4.6,0.6-6.8,1.9
		c-2.2,1.3-3.9,3.1-5.2,5.4c-1.3,2.3-1.9,4.7-1.9,7.2c0,2.2,0.4,4.2,1.3,6.1c0.9,1.8,1.9,3.3,3.1,4.6c1.2,1.2,2.6,2.2,4,2.8
		c1.8,0.9,3.8,1.3,5.8,1.3c4,0,7.5-1.8,10.4-5.3h9.1c-1,2.1-2,3.8-3.1,5c-1.4,1.7-3,3.1-4.7,4.2c-1.8,1.1-3.6,2-5.6,2.5
		s-4,0.8-6.1,0.8c-6,0-11.2-2.2-15.5-6.5c-4.3-4.3-6.5-9.5-6.5-15.4c0-3.3,0.6-6.3,1.9-8.9c1.2-2.7,2.8-4.9,4.6-6.7
		c1.8-1.8,3.8-3.2,6-4.2c3-1.4,6.1-2.1,9.4-2.1c2.3,0,4.6,0.4,6.9,1.1c2.3,0.7,4.4,1.8,6.2,3.2c1.8,1.4,3.3,2.8,4.5,4.4
		C101.9,51.9,102.7,53.3,103.5,55z"/>
	<path class="st2" d="M122.5,86.2c-2.2,0-4.4-0.4-6.4-1.3c-2.1-0.9-3.8-2-5.3-3.5c-1.5-1.5-2.6-3.1-3.5-4.9
		c-1.1-2.3-1.6-4.7-1.6-7.2c0-2.9,0.7-5.7,2.2-8.4c1.5-2.7,3.6-4.7,6.2-6.2s5.5-2.2,8.4-2.2c2.9,0,5.7,0.7,8.4,2.2
		c2.7,1.5,4.7,3.5,6.2,6.2c1.5,2.6,2.2,5.5,2.2,8.5c0,2.2-0.4,4.2-1.1,6.1c-0.7,1.9-1.7,3.6-2.9,5c-1.2,1.4-2.5,2.5-3.8,3.3
		c-1.3,0.8-2.8,1.4-4.3,1.8C125.6,86,124.1,86.2,122.5,86.2z M111.2,50.4l8.4-7.9h6l8.3,7.9h-8.3l-3-3.6l-3.2,3.6H111.2z
		 M122.5,79.3c2.7,0,4.8-1,6.6-2.9c1.7-1.9,2.6-4.2,2.6-6.9c0-1.8-0.4-3.5-1.3-5.1c-0.9-1.6-2-2.8-3.5-3.7c-1.5-0.9-2.9-1.3-4.4-1.3
		c-1.5,0-3,0.4-4.5,1.3c-1.5,0.9-2.7,2.1-3.6,3.6c-0.9,1.5-1.3,3.2-1.3,5.1c0,1.8,0.4,3.5,1.3,5.1c0.9,1.5,2,2.7,3.5,3.5
		C119.4,78.8,121,79.3,122.5,79.3z"/>
	<path class="st2" d="M145.6,85.2V60.3h-3.7v-6.7h3.7V43h7.6v10.5h4.5v6.7h-4.5v24.9H145.6z"/>
	<path class="st2" d="M192.1,72.8h-24.5c0.8,2.1,1.9,3.7,3.4,4.8s3.3,1.6,5.5,1.6c1.7,0,3.1-0.3,4.2-1c1.1-0.7,2.1-1.7,2.9-3h8
		c-0.5,1.4-1.1,2.7-1.7,3.6c-1,1.4-2.2,2.7-3.5,3.9s-2.9,2-4.5,2.6s-3.5,0.9-5.7,0.9c-5.3,0-9.5-2-12.7-5.9c-2.5-3.1-3.8-6.8-3.8-11
		c0-3.1,0.7-6,2.2-8.7c1.5-2.7,3.5-4.7,6.1-6.2c2.6-1.5,5.5-2.2,8.5-2.2c3,0,5.7,0.7,8.2,2.1s4.5,3.4,5.8,5.9
		c1.4,2.6,2.1,5.3,2.1,8.2C192.6,69.9,192.4,71.3,192.1,72.8z M184.8,66.6c-0.5-2.4-1.5-4.2-3-5.5c-1.5-1.3-3.4-1.9-5.6-1.9
		c-1.7,0-3.1,0.4-4.4,1.1c-1.3,0.7-2.3,1.7-3.1,3c-0.5,0.9-1,1.9-1.3,3.3H184.8z"/>
	<path class="st2" d="M245.5,43v42.2h-7v-3.9h-0.1c-1,1.5-2.4,2.7-4.2,3.6c-1.7,0.9-3.7,1.3-6,1.3c-4.4,0-8.1-1.6-11.3-4.9
		c-3.2-3.3-4.8-7.2-4.8-12c0-2.7,0.5-5,1.4-7c0.9-2,2.1-3.7,3.5-5.1c1.4-1.3,2.9-2.4,4.5-3.2c2.2-1.1,4.6-1.6,7-1.6
		c2,0,3.8,0.3,5.3,1c1.5,0.7,2.8,1.6,4.1,2.9V43H245.5z M219.8,69.1c0,1.8,0.4,3.5,1.2,5.1c0.8,1.6,2,2.8,3.5,3.7
		c1.5,0.9,3,1.3,4.7,1.3s3.1-0.4,4.6-1.3c1.4-0.9,2.6-2.1,3.5-3.7s1.3-3.3,1.3-5c0-1.7-0.4-3.3-1.3-4.9c-0.9-1.6-2-2.8-3.5-3.7
		c-1.5-0.9-3-1.3-4.6-1.3c-1.6,0-3.2,0.5-4.7,1.3c-1.5,0.9-2.6,2.1-3.5,3.7S219.8,67.6,219.8,69.1z"/>
	<path class="st2" d="M252,50.6V43h7.6v8c0,2.3-0.7,4.2-2,5.6c-1.4,1.4-3.2,2-5.5,2v-3.8c1.3-0.3,2.2-0.7,2.5-1.1
		c0.5-0.6,0.8-1.3,0.8-2.1v-1H252z"/>
	<path class="st2" d="M267.9,85.2V43h7.8v42.2H267.9z"/>
	<path class="st2" d="M292.7,85.2L280,53.5h8.2l7.6,21h0.2l7.2-21h8.3l-12.8,31.6H292.7z"/>
	<path class="st2" d="M327.8,86.2c-2.2,0-4.4-0.4-6.4-1.3c-2.1-0.9-3.8-2-5.3-3.5c-1.5-1.5-2.6-3.1-3.5-4.9
		c-1.1-2.3-1.6-4.7-1.6-7.2c0-2.9,0.7-5.7,2.2-8.4c1.5-2.7,3.6-4.7,6.2-6.2s5.5-2.2,8.4-2.2c2.9,0,5.7,0.7,8.4,2.2
		c2.7,1.5,4.7,3.5,6.2,6.2c1.5,2.6,2.2,5.5,2.2,8.5c0,2.2-0.4,4.2-1.1,6.1c-0.7,1.9-1.7,3.6-2.9,5c-1.2,1.4-2.5,2.5-3.8,3.3
		c-1.3,0.8-2.8,1.4-4.3,1.8S329.4,86.2,327.8,86.2z M327.8,79.3c2.7,0,4.8-1,6.6-2.9c1.7-1.9,2.6-4.2,2.6-6.9c0-1.8-0.4-3.5-1.3-5.1
		c-0.9-1.6-2-2.8-3.5-3.7c-1.5-0.9-2.9-1.3-4.4-1.3c-1.5,0-3,0.4-4.5,1.3c-1.5,0.9-2.7,2.1-3.6,3.6c-0.9,1.5-1.3,3.2-1.3,5.1
		c0,1.8,0.4,3.5,1.3,5.1s2,2.7,3.5,3.5C324.7,78.8,326.2,79.3,327.8,79.3z"/>
	<path class="st2" d="M349.1,49.9v-7h7.6v7H349.1z M349.1,85.2V53.5h7.6v31.6H349.1z"/>
	<path class="st2" d="M363.3,85.2V53.5h7v2.8h0.1c1-1.5,2-2.5,3-3c1-0.5,2.2-0.8,3.8-0.8h0.6v7.3c-1.6,0.1-2.9,0.4-3.9,1
		s-1.8,1.4-2.3,2.4c-0.5,1.1-0.8,2.4-0.8,4.2v17.8H363.3z"/>
	<path class="st2" d="M412.2,72.8h-24.5c0.8,2.1,1.9,3.7,3.4,4.8s3.3,1.6,5.5,1.6c1.7,0,3.1-0.3,4.2-1c1.1-0.7,2.1-1.7,2.9-3h8
		c-0.5,1.4-1.1,2.7-1.7,3.6c-1,1.4-2.2,2.7-3.5,3.9s-2.9,2-4.5,2.6s-3.5,0.9-5.7,0.9c-5.3,0-9.5-2-12.7-5.9c-2.5-3.1-3.8-6.8-3.8-11
		c0-3.1,0.7-6,2.2-8.7c1.5-2.7,3.5-4.7,6.1-6.2c2.6-1.5,5.5-2.2,8.5-2.2c3,0,5.7,0.7,8.2,2.1s4.5,3.4,5.8,5.9
		c1.4,2.6,2.1,5.3,2.1,8.2C412.7,69.9,412.6,71.3,412.2,72.8z M404.9,66.6c-0.5-2.4-1.5-4.2-3-5.5c-1.5-1.3-3.4-1.9-5.7-1.9
		c-1.7,0-3.1,0.4-4.4,1.1c-1.3,0.7-2.3,1.7-3.1,3c-0.5,0.9-1,1.9-1.3,3.3H404.9z"/>
</g>
<g class="st1">
	<path class="st2" d="M63.8,140.2V98h7.8v17.2h15.1V98h7.8v42.2h-7.8v-17.7H71.7v17.7H63.8z"/>
	<path class="st2" d="M132.9,127.8h-24.5c0.8,2.1,1.9,3.7,3.4,4.8s3.3,1.6,5.5,1.6c1.7,0,3.1-0.3,4.2-1c1.1-0.7,2.1-1.7,2.9-3h8
		c-0.5,1.4-1.1,2.7-1.7,3.6c-1,1.4-2.2,2.7-3.5,3.9s-2.9,2-4.5,2.6s-3.5,0.9-5.7,0.9c-5.3,0-9.5-2-12.7-5.9c-2.5-3.1-3.8-6.8-3.8-11
		c0-3.1,0.7-6,2.2-8.7c1.5-2.7,3.5-4.7,6.1-6.2c2.6-1.5,5.5-2.2,8.5-2.2c3,0,5.7,0.7,8.2,2.1s4.5,3.4,5.8,5.9
		c1.4,2.6,2.1,5.3,2.1,8.2C133.3,124.9,133.2,126.3,132.9,127.8z M125.6,121.6c-0.5-2.4-1.5-4.2-3-5.5c-1.5-1.3-3.4-1.9-5.6-1.9
		c-1.7,0-3.1,0.4-4.4,1.1c-1.3,0.7-2.3,1.7-3.1,3c-0.5,0.9-1,1.9-1.3,3.3H125.6z"/>
	<path class="st2" d="M170,108.5v31.6h-7v-3.9c-1.4,1.6-3,2.8-4.8,3.6s-3.8,1.3-6.2,1.3c-2.8,0-5.4-0.7-7.7-2
		c-2.3-1.4-4.1-3.3-5.6-5.9s-2.2-5.6-2.2-8.9c0-3.2,0.7-6.1,2.1-8.7s3.3-4.6,5.8-6c2.5-1.4,5.1-2.1,7.8-2.1c1.8,0,3.5,0.3,4.9,0.9
		c1.4,0.6,2.6,1.3,3.7,2.1c1,0.8,1.7,1.5,2.1,2.1h0.1v-4H170z M162.8,124.3c0-2.9-0.9-5.3-2.7-7.2c-1.8-1.8-4-2.7-6.6-2.7
		c-1.7,0-3.3,0.4-4.7,1.3c-1.4,0.9-2.6,2.1-3.4,3.7c-0.8,1.6-1.2,3.3-1.2,5.1c0,2.8,0.9,5.1,2.7,6.9c1.8,1.9,4,2.8,6.7,2.8
		c2.8,0,5-1,6.7-2.9C162,129.4,162.8,127.1,162.8,124.3z"/>
	<path class="st2" d="M175.8,140.2V98h7.6v42.2H175.8z"/>
	<path class="st2" d="M191.3,140.2v-24.9h-3.7v-6.7h3.7V98h7.6v10.5h4.5v6.7h-4.5v24.9H191.3z"/>
	<path class="st2" d="M206.6,140.2V98h7.6v12.8c2.4-2.2,5-3.3,8-3.3c2.3,0,4.5,0.6,6.6,1.8c2.1,1.2,3.6,2.7,4.5,4.6
		c0.9,1.9,1.4,4.7,1.4,8.5v17.8H227V124c0-2.3-0.2-4.1-0.6-5.3c-0.4-1.3-1-2.3-2-3.1c-1-0.8-2.2-1.2-3.8-1.2c-1.4,0-2.7,0.4-3.7,1.1
		c-1,0.7-1.8,1.7-2.2,2.9c-0.4,1.2-0.6,3.1-0.6,5.7v16.1H206.6z"/>
	<path class="st2" d="M281.3,110h-8.9c-1.6-1.8-3.3-3.2-5.1-4.1c-1.8-1-3.8-1.5-6-1.5c-2.3,0-4.6,0.6-6.8,1.9
		c-2.2,1.3-3.9,3.1-5.2,5.4c-1.3,2.3-1.9,4.7-1.9,7.2c0,2.2,0.4,4.2,1.3,6.1s1.9,3.3,3.1,4.6c1.2,1.2,2.6,2.2,4,2.8
		c1.8,0.9,3.8,1.3,5.8,1.3c4,0,7.5-1.8,10.4-5.3h9.1c-1,2.1-2,3.8-3.1,5c-1.4,1.7-3,3.1-4.7,4.2c-1.8,1.1-3.6,2-5.6,2.5
		c-1.9,0.6-4,0.8-6.1,0.8c-6,0-11.2-2.2-15.5-6.5c-4.3-4.3-6.5-9.5-6.5-15.4c0-3.3,0.6-6.3,1.9-8.9s2.8-4.9,4.6-6.7
		c1.8-1.8,3.8-3.2,6-4.2c3-1.4,6.1-2.1,9.4-2.1c2.3,0,4.6,0.4,6.9,1.1c2.3,0.7,4.4,1.8,6.2,3.2c1.8,1.4,3.3,2.8,4.5,4.4
		C279.7,106.9,280.5,108.3,281.3,110z"/>
	<path class="st2" d="M317.1,108.5v31.6h-7v-3.9c-1.4,1.6-3,2.8-4.8,3.6c-1.8,0.9-3.8,1.3-6.2,1.3c-2.8,0-5.4-0.7-7.7-2
		c-2.3-1.4-4.1-3.3-5.6-5.9c-1.4-2.6-2.2-5.6-2.2-8.9c0-3.2,0.7-6.1,2.1-8.7c1.4-2.6,3.3-4.6,5.8-6c2.5-1.4,5.1-2.1,7.8-2.1
		c1.8,0,3.5,0.3,4.9,0.9s2.6,1.3,3.7,2.1c1,0.8,1.7,1.5,2.1,2.1h0.1v-4H317.1z M309.9,124.3c0-2.9-0.9-5.3-2.7-7.2
		c-1.8-1.8-4-2.7-6.6-2.7c-1.7,0-3.3,0.4-4.7,1.3c-1.4,0.9-2.6,2.1-3.4,3.7c-0.8,1.6-1.2,3.3-1.2,5.1c0,2.8,0.9,5.1,2.7,6.9
		c1.8,1.9,4,2.8,6.7,2.8c2.8,0,5-1,6.7-2.9C309,129.4,309.9,127.1,309.9,124.3z"/>
	<path class="st2" d="M323.3,140.2v-31.6h7v2.8h0.1c1-1.5,2-2.5,3-3c1-0.5,2.2-0.8,3.8-0.8h0.6v7.3c-1.6,0.1-2.9,0.4-3.9,1
		s-1.8,1.4-2.3,2.4c-0.5,1.1-0.8,2.4-0.8,4.2v17.8H323.3z"/>
	<path class="st2" d="M372.3,127.8h-24.5c0.8,2.1,1.9,3.7,3.4,4.8c1.5,1.1,3.3,1.6,5.5,1.6c1.7,0,3.1-0.3,4.2-1
		c1.1-0.7,2.1-1.7,2.9-3h8c-0.5,1.4-1.1,2.7-1.7,3.6c-1,1.4-2.2,2.7-3.5,3.9c-1.4,1.1-2.9,2-4.5,2.6c-1.6,0.6-3.5,0.9-5.7,0.9
		c-5.3,0-9.5-2-12.7-5.9c-2.5-3.1-3.8-6.8-3.8-11c0-3.1,0.7-6,2.2-8.7c1.5-2.7,3.5-4.7,6.1-6.2c2.6-1.5,5.5-2.2,8.5-2.2
		c3,0,5.7,0.7,8.2,2.1c2.5,1.4,4.5,3.4,5.8,5.9c1.4,2.6,2.1,5.3,2.1,8.2C372.7,124.9,372.6,126.3,372.3,127.8z M365,121.6
		c-0.5-2.4-1.5-4.2-3-5.5c-1.5-1.3-3.4-1.9-5.7-1.9c-1.7,0-3.1,0.4-4.4,1.1c-1.3,0.7-2.3,1.7-3.1,3c-0.5,0.9-1,1.9-1.3,3.3H365z"/>
</g>
</svg>
