<?xml version="1.0" encoding="utf-8"?>
<!-- Generator: Adobe Illustrator 25.3.1, SVG Export Plug-In . SVG Version: 6.00 Build 0)  -->
<svg version="1.1" xmlns="http://www.w3.org/2000/svg" xmlns:xlink="http://www.w3.org/1999/xlink" x="0px" y="0px"
	 viewBox="0 0 94 85.4" style="enable-background:new 0 0 94 85.4;" xml:space="preserve">
<style type="text/css">
	.st0{display:none;}
	.st1{fill:none;}
	.st2{fill:#009E60;}
	.st3{fill:#F77F00;}
</style>
<g id="Calque_1" class="st0">
	
		<image style="display:inline;overflow:visible;" width="1024" height="1024" xlink:href="C:\Users\kolarel\Downloads\DALL·E 2025-03-15 22.12.36 - A professional and modern logo design featuring a stylized handshake symbol, representing business and cooperation. The logo incorporates the colors o.jpg"  transform="matrix(1 0 0 1 -210.6596 -203.8936)">
	</image>
</g>
<g id="Calque_4">
	<path class="st1" d="M46,61.8c-0.7-0.5-1.4-0.7-2.1-0.5c0.9,0,1.8,0.4,2.6,1C46.3,62.1,46.1,61.9,46,61.8z"/>
	<path class="st1" d="M47,68.3c0.8-0.7,1.9-1,3-0.9c-0.2-0.1-0.4-0.1-0.6-0.2l-0.8-0.2l0-0.8c0-1-0.5-2.2-1.3-3.2
		c0.5,0.6,0.7,1.4,0.8,2.2C48.1,66.4,47.7,67.5,47,68.3z"/>
	<path class="st1" d="M46.7,62.4c0.1,0.1,0.3,0.3,0.4,0.4C47,62.7,46.8,62.6,46.7,62.4z"/>
	<path class="st2" d="M58.2,25V7.2c-1.9-1-3.9-1.8-6-2.5v17.9c1.1,0.4,2.3,0.9,3.5,1.4C56.5,24.3,57.3,24.7,58.2,25z"/>
	<path class="st3" d="M29.7,50.1v-9.5c-1.7-1.3-2.1-3.2-2.1-3.2l-0.1-0.7l0.6-0.3c0,0,0.6-0.4,1.6-1v-31l-6.6,2.6L23,7v49.6l5.8-5.8
		C29.1,50.5,29.4,50.3,29.7,50.1z"/>
	<polygon class="st3" points="29.5,61.7 29.5,61.5 27.5,63.7 	"/>
	<path class="st3" d="M25.1,72.2c-0.8-0.8-1.3-1.9-1.3-3c0-1.2,0.4-2.2,1.3-3l2.3-2.3c-0.8,0.8-1.8,1.2-2.9,1.2
		c-0.5,0-0.9-0.1-1.3-0.2v11.2c2,1,4.1,1.9,6.3,2.5v-5.2c-0.4,0.1-0.9,0.2-1.3,0.2C27,73.5,25.9,73,25.1,72.2z"/>
	<path class="st3" d="M39,77.2l-0.5,0.5c-0.8,0.9-1.8,1.4-3,1.4l-0.3,0c-0.9,0-1.8-0.3-2.6-0.9v1.1l0.2,0c1.8,0.4,3.7,0.6,5.6,0.7
		c0-0.2-0.1-0.4-0.1-0.6C38.4,78.7,38.6,77.9,39,77.2z"/>
	<path class="st3" d="M38,28.3c0.3-0.3,0.6-0.6,0.9-0.9V3c-2,0.1-4,0.3-5.9,0.7V33c0.6-0.5,1.2-1,1.8-1.5
		C35.8,30.5,36.9,29.4,38,28.3z"/>
	<path class="st2" d="M48.8,79.4l0.1,0v-1.2l-1.3,1.5C48,79.5,48.4,79.5,48.8,79.4z"/>
	<path class="st2" d="M48.6,21.7V3.8c-2.1-0.4-4.2-0.7-6.4-0.8v21.2c1.5-1.3,3.2-2.2,4.9-2.5C47.6,21.7,48.1,21.7,48.6,21.7z"/>
	<path class="st3" d="M1.8,41.5c0,8.4,2.6,16.4,7.7,23.1l0.3,0.5V17.9l-0.3,0.5C4.5,25.1,1.8,33.1,1.8,41.5z"/>
	<path class="st3" d="M12.6,14.7L12.6,14.7l0,53.5l0,0.1l0,0c2.1,2.2,4.5,4.1,7,5.8l0.3,0.2V8.7l-0.3,0.2
		C17.1,10.5,14.7,12.5,12.6,14.7z"/>
	<path class="st2" d="M66.9,13.4c-1.7-1.6-3.5-3-5.4-4.2v17c1.7,0.6,3.6,1.3,5.4,1.7V13.4z"/>
	<path class="st2" d="M72.4,27.9l1.2-0.5l0.5,3.8V18.7c-1.7-1.6-3.5-3-5.4-4.2v13.8c0.1,0,0.2,0,0.2,0
		C70.8,28.5,72.4,27.9,72.4,27.9z"/>
	<path class="st2" d="M63.9,45.3l-0.6-0.2l11.5,11.1l-0.5-13l-0.2,0.2C69.8,47.2,64,45.3,63.9,45.3z"/>
	<polygon class="st3" points="85.8,62.2 85.8,62.2 85.8,62.2 	"/>
	<polygon class="st3" points="86.8,62.1 86.8,62.1 85.8,62.2 	"/>
	<path class="st3" d="M27.5,63.8L27.5,63.8L27.5,63.8C27.5,63.8,27.5,63.8,27.5,63.8z"/>
	<path class="st3" d="M47.1,62.9c0,0.1,0.1,0.1,0.1,0.2C47.2,63,47.1,62.9,47.1,62.9z"/>
	<path class="st3" d="M46.6,62.3c0,0-0.1-0.1-0.1-0.1c0.1,0.1,0.1,0.1,0.2,0.2C46.6,62.4,46.6,62.4,46.6,62.3z"/>
	<path class="st3" d="M39.1,80.2v-3l0,0c-0.4,0.7-0.6,1.5-0.6,2.3c0,0.2,0.1,0.4,0.1,0.6c0.1,0,0.2,0,0.3,0L39.1,80.2z"/>
	<path class="st3" d="M39,77.2L39,77.2L39,77.2C39,77.2,39,77.2,39,77.2z"/>
	<g>
		<g>
			<path d="M28.2,72.5c-0.9,0-1.7-0.3-2.3-1c-0.6-0.6-1-1.4-1-2.3c0-0.9,0.3-1.7,1-2.3l9.4-9.4c0.6-0.6,1.5-1,2.3-1
				c0.9,0,1.7,0.3,2.3,1c1.3,1.3,1.3,3.4,0,4.7l-9.4,9.4C29.9,72.1,29.1,72.5,28.2,72.5z"/>
		</g>
		<g>
			<g>
				<g>
					<path d="M85.8,62.2l-2.4-36.5l2.4-1.3l3.2,1.7l1.8,33.7c0,0-0.2,2.1-1.1,2.1"/>
				</g>
				<g>
					<g>
						<path d="M78,65.3L78,65.3l-1.8-38.5l1.7-1.8l3.5,0.7l0,0l2,37c0,0.1-0.2,2.3-1.3,2.3c0,0,0,0,0,0C80.8,65.1,78,65.3,78,65.3
							L78,65.3z"/>
					</g>
				</g>
				<g>
					<g>
						<g>
							<path d="M59.6,26.6c2.9,1,6.5,2.4,9.2,2.7c2.2,0.3,3.9-0.4,3.9-0.4l1.2,9.6c0,0-3,4.2-6.6,4.2c-12.4,0-13.9-11.7-20-11
								c-4.9,0.7-8.1,8.7-12.1,9.1c-5.9,0.8-6.6-3.5-6.6-3.5s3.3-1.8,6.8-5c3.9-3.5,7.6-8.9,11.8-9.5C50.1,22.3,54.4,24.7,59.6,26.6
								z"/>
						</g>
					</g>
					<g>
						<path d="M33.4,55.7l-6.7,7.4c-1.2,1.2-3.2,1.2-4.4,0l0,0c-1.2-1.2-1.2-3.2,0-4.4l7.3-7.3c1.2-1.2,3.2-1.2,4.4,0l0,0
							C35.2,52.7,34.6,54.5,33.4,55.7z"/>
					</g>
					<g>
						<g>
							<path d="M61.7,76.7c0,0-0.1,0-0.1,0c-2.4-0.2-6.2-5.1-6.9-6.4c-0.7-1.3-2.8-3.5-5-4l0,0l0,0c0-1.8-1.3-4.1-3-5.3
								c-0.8-0.5-2-1.1-3.3-0.6l-0.1,0l0-0.1c0.4-1.7,0.1-3.5-1-4.8c-1.1-1.3-2.7-2-4.5-1.9l-0.1,0l0-0.1c-0.4-5.7-4.6-5.8-4.6-5.8
								l0,0l-0.4-4.6l0.1,0c4.4,1.2,7.9-2.5,10.8-5.6c1.5-1.6,2.8-3,3.9-3.2c2.4-0.4,6.1,3.5,11.8,9.5c1.1,1.2,2.3,2.4,3.6,3.7
								c1.2,1.2,2.4,2.4,3.7,3.7c4.3,4.2,8.4,8.2,8.4,10.8c0,0.6-0.2,1-0.6,1.4c-0.6,0.5-1.2,0.8-1.9,0.8c-1.9-0.1-4-2.5-6-4.9
								c-0.6-0.7-1.2-1.4-1.8-2.1c-0.5-0.5-1-1.1-1.5-1.6C57.9,50.5,52.8,45,51,45c0,0,0,0,0,0c-0.2,0-0.3,0.1-0.4,0.2
								C49.9,45.9,52,48,55,50.8c0.7,0.7,1.4,1.4,2.2,2.1C61.6,57.5,66.8,63,69,65.9c0.6,0.7,0.8,1.6,0.7,2.4
								c-0.2,1.4-1.2,2.5-1.8,2.9c-0.1,0.1-0.2,0.1-0.4,0.1c-1.6,0-5.7-4.6-10-9.5c-4.8-5.4-9.8-11-11.1-9.9
								c-0.1,0.1-0.2,0.2-0.2,0.4c-0.1,1.4,3.4,5,7,8.7c2,2,4,4.1,5.7,6.1c0.8,0.9,1.6,1.7,2.3,2.4c2.3,2.3,3.7,3.7,1.4,6.5
								C62.5,76.6,62.1,76.7,61.7,76.7z"/>
						</g>
					</g>
					<g>
						<g>
							<path d="M55.3,82.2c-0.2,0-0.4,0-0.7-0.1c-2-0.7-3-4.2-3.1-4.3l0-0.1l0.1-0.1c2.8-2,3.3-3.1,3.3-3.1l0.1-0.1l0.1,0.1
								c0.1,0.1,3.2,2.3,3.2,4.6c0,0.9-0.4,1.7-1.3,2.4C56.4,82,55.8,82.2,55.3,82.2z"/>
						</g>
					</g>
				</g>
			</g>
			<g>
				<path d="M35.3,78.2c-0.8,0-1.6-0.3-2.2-0.8c-0.7-0.6-1-1.4-1.1-2.3c-0.1-0.9,0.2-1.7,0.8-2.4l8.4-9.4c0.6-0.7,1.4-1,2.3-1.1
					c0.9,0,1.7,0.2,2.4,0.8c0.7,0.6,1,1.4,1.1,2.3c0,0.9-0.2,1.7-0.8,2.4l-8.4,9.4c-0.6,0.7-1.4,1-2.3,1.1
					C35.5,78.2,35.4,78.2,35.3,78.2z"/>
			</g>
			<g>
				<path d="M42.5,82.3c-0.7,0-1.5-0.3-2-0.8c-0.6-0.5-1-1.3-1-2.1c0-0.8,0.2-1.6,0.8-2.2l7-7.9c1.1-1.2,3-1.3,4.3-0.2
					c0.6,0.5,1,1.3,1,2.1c0,0.8-0.2,1.6-0.8,2.2l-7,7.9c-0.5,0.6-1.3,1-2.1,1C42.6,82.3,42.5,82.3,42.5,82.3z"/>
			</g>
		</g>
	</g>
</g>
<g id="Calque_3">
</g>
</svg>
